<svg width="44" height="44" viewBox="0 0 44 44" class="jf">
<path d="M36.6667 40.3334H7.33333C6.8471 40.3334 6.38079 40.1402 6.03697 39.7964C5.69315 39.4526 5.5 38.9863 5.5 38.5V14.6667H38.5V38.5C38.5 38.9863 38.3068 39.4526 37.963 39.7964C37.6192 40.1402 37.1529 40.3334 36.6667 40.3334ZM12.8333 20.1667V27.5H20.1667V20.1667H12.8333ZM12.8333 31.1667V34.8334H31.1667V31.1667H12.8333ZM23.8333 22V25.6667H31.1667V22H23.8333Z"></path>
<path opacity="0.5" d="M38.5 11H5.5V5.49996C5.5 5.01373 5.69315 4.54741 6.03697 4.2036C6.38079 3.85978 6.8471 3.66663 7.33333 3.66663H36.6667C37.1529 3.66663 37.6192 3.85978 37.963 4.2036C38.3068 4.54741 38.5 5.01373 38.5 5.49996V11Z"></path>
</svg>