

<svg width="44" height="44" viewBox="0 0 44 44" class="jf">
<path opacity="0.5" d="M10.0154 8.12714C13.3421 5.24452 17.598 3.6605 21.9999 3.66664C32.1254 3.66664 40.3332 11.8745 40.3332 22C40.3332 25.916 39.1049 29.546 37.0149 32.5233L31.1665 22H36.6665C36.6668 19.1246 35.8218 16.3126 34.2368 13.9136C32.6517 11.5146 30.3964 9.63443 27.7514 8.50687C25.1063 7.37931 22.1882 7.0541 19.3598 7.57168C16.5314 8.08926 13.9175 9.42679 11.8432 11.418L10.0154 8.12714Z"></path>
<path d="M33.9843 35.8729C30.6576 38.7555 26.4017 40.3395 21.9998 40.3333C11.8743 40.3333 3.6665 32.1255 3.6665 22C3.6665 18.084 4.89484 14.454 6.98484 11.4767L12.8332 22H7.33317C7.33293 24.8754 8.17788 27.6874 9.76295 30.0864C11.348 32.4854 13.6033 34.3656 16.2483 35.4931C18.8934 36.6207 21.8115 36.9459 24.6399 36.4283C27.4683 35.9107 30.0822 34.5732 32.1565 32.582L33.9843 35.8729Z"></path>
</svg>